<svg xmlns="http://www.w3.org/2000/svg" viewBox="0 0 600 600" width="600" height="600" fill="#0D7C72">
<circle cx="300.0" cy="540.0" r="2.8" opacity="0.57"/>
<circle cx="279.6" cy="538.4" r="2.9" opacity="0.60"/>
<circle cx="303.4" cy="536.8" r="2.9" opacity="0.52"/>
<circle cx="329.1" cy="535.2" r="3.2" opacity="0.63"/>
<circle cx="245.7" cy="533.6" r="3.0" opacity="0.56"/>
<circle cx="351.9" cy="532.0" r="2.7" opacity="0.53"/>
<circle cx="282.5" cy="530.4" r="3.1" opacity="0.66"/>
<circle cx="266.5" cy="528.8" r="2.8" opacity="0.49"/>
<circle cx="372.8" cy="527.2" r="3.2" opacity="0.61"/>
<circle cx="224.2" cy="525.6" r="3.4" opacity="0.62"/>
<circle cx="336.6" cy="523.9" r="2.5" opacity="0.47"/>
<circle cx="327.0" cy="522.3" r="3.5" opacity="0.69"/>
<circle cx="218.5" cy="520.7" r="2.9" opacity="0.51"/>
<circle cx="395.6" cy="519.1" r="2.7" opacity="0.55"/>
<circle cx="241.7" cy="517.5" r="3.2" opacity="0.69"/>
<circle cx="286.5" cy="515.9" r="2.5" opacity="0.43"/>
<circle cx="382.6" cy="514.3" r="3.4" opacity="0.67"/>
<circle cx="188.9" cy="512.7" r="2.8" opacity="0.58"/>
<circle cx="380.9" cy="511.1" r="2.5" opacity="0.47"/>
<circle cx="294.6" cy="509.5" r="3.4" opacity="0.73"/>
<circle cx="223.2" cy="507.9" r="2.5" opacity="0.45"/>
<circle cx="421.6" cy="506.3" r="3.2" opacity="0.60"/>
<circle cx="197.1" cy="504.7" r="3.4" opacity="0.67"/>
<circle cx="328.1" cy="503.1" r="2.6" opacity="0.41"/>
<circle cx="364.8" cy="501.5" r="3.8" opacity="0.73"/>
<circle cx="173.4" cy="499.9" r="2.8" opacity="0.52"/>
<circle cx="422.8" cy="498.3" r="2.5" opacity="0.50"/>
<circle cx="246.9" cy="496.7" r="3.7" opacity="0.75"/>
<circle cx="252.7" cy="495.1" r="2.3" opacity="0.40"/>
<circle cx="425.7" cy="493.4" r="3.4" opacity="0.66"/>
<circle cx="160.5" cy="491.8" r="3.4" opacity="0.62"/>
<circle cx="379.1" cy="490.2" r="2.5" opacity="0.41"/>
<circle cx="325.1" cy="488.6" r="3.6" opacity="0.77"/>
<circle cx="181.1" cy="487.0" r="2.3" opacity="0.45"/>
<circle cx="451.9" cy="485.4" r="3.1" opacity="0.56"/>
<circle cx="195.2" cy="483.8" r="3.5" opacity="0.73"/>
<circle cx="300.8" cy="482.2" r="2.3" opacity="0.36"/>
<circle cx="406.2" cy="480.6" r="3.7" opacity="0.73"/>
<circle cx="140.8" cy="479.0" r="3.2" opacity="0.56"/>
<circle cx="428.8" cy="477.4" r="2.4" opacity="0.44"/>
<circle cx="270.8" cy="475.8" r="3.7" opacity="0.79"/>
<circle cx="212.1" cy="474.2" r="2.5" opacity="0.39"/>
<circle cx="460.9" cy="472.6" r="3.3" opacity="0.63"/>
<circle cx="150.1" cy="471.0" r="3.5" opacity="0.68"/>
<circle cx="359.1" cy="469.4" r="2.2" opacity="0.36"/>
<circle cx="364.7" cy="467.8" r="3.6" opacity="0.79"/>
<circle cx="143.5" cy="466.2" r="2.7" opacity="0.47"/>
<circle cx="467.0" cy="464.5" r="2.9" opacity="0.51"/>
<circle cx="210.9" cy="462.9" r="3.7" opacity="0.78"/>
<circle cx="262.7" cy="461.3" r="2.1" opacity="0.34"/>
<circle cx="446.0" cy="459.7" r="3.7" opacity="0.72"/>
<circle cx="120.8" cy="458.1" r="3.1" opacity="0.61"/>
<circle cx="417.9" cy="456.5" r="2.1" opacity="0.39"/>
<circle cx="306.7" cy="454.9" r="3.8" opacity="0.82"/>
<circle cx="170.4" cy="453.3" r="2.2" opacity="0.40"/>
<circle cx="485.7" cy="451.7" r="2.9" opacity="0.59"/>
<circle cx="155.6" cy="450.1" r="3.6" opacity="0.74"/>
<circle cx="326.1" cy="448.5" r="2.2" opacity="0.32"/>
<circle cx="407.6" cy="446.9" r="4.0" opacity="0.79"/>
<circle cx="113.8" cy="445.3" r="2.6" opacity="0.52"/>
<circle cx="467.3" cy="443.7" r="2.7" opacity="0.45"/>
<circle cx="240.3" cy="442.1" r="4.0" opacity="0.82"/>
<circle cx="219.2" cy="440.5" r="2.1" opacity="0.34"/>
<circle cx="480.2" cy="438.9" r="3.3" opacity="0.68"/>
<circle cx="114.4" cy="437.3" r="3.6" opacity="0.66"/>
<circle cx="393.0" cy="435.7" r="2.1" opacity="0.34"/>
<circle cx="349.8" cy="434.0" r="3.9" opacity="0.84"/>
<circle cx="132.2" cy="432.4" r="2.2" opacity="0.43"/>
<circle cx="498.5" cy="430.8" r="3.1" opacity="0.53"/>
<circle cx="175.4" cy="429.2" r="3.6" opacity="0.79"/>
<circle cx="284.2" cy="427.6" r="1.9" opacity="0.30"/>
<circle cx="449.3" cy="426.0" r="3.7" opacity="0.76"/>
<circle cx="94.8" cy="424.4" r="2.9" opacity="0.57"/>
<circle cx="453.4" cy="422.8" r="2.5" opacity="0.39"/>
<circle cx="279.9" cy="421.2" r="4.1" opacity="0.85"/>
<circle cx="175.0" cy="419.6" r="2.1" opacity="0.35"/>
<circle cx="505.4" cy="418.0" r="3.4" opacity="0.63"/>
<circle cx="121.8" cy="416.4" r="3.4" opacity="0.73"/>
<circle cx="356.7" cy="414.8" r="2.1" opacity="0.30"/>
<circle cx="395.7" cy="413.2" r="4.1" opacity="0.83"/>
<circle cx="101.1" cy="411.6" r="2.8" opacity="0.47"/>
<circle cx="498.0" cy="410.0" r="2.4" opacity="0.47"/>
<circle cx="207.3" cy="408.4" r="3.8" opacity="0.84"/>
<circle cx="237.7" cy="406.8" r="2.0" opacity="0.30"/>
<circle cx="485.6" cy="405.2" r="3.8" opacity="0.72"/>
<circle cx="88.1" cy="403.5" r="3.3" opacity="0.64"/>
<circle cx="426.7" cy="401.9" r="2.2" opacity="0.34"/>
<circle cx="325.9" cy="400.3" r="4.2" opacity="0.87"/>
<circle cx="134.1" cy="398.7" r="2.5" opacity="0.38"/>
<circle cx="519.4" cy="397.1" r="3.2" opacity="0.57"/>
<circle cx="142.4" cy="395.5" r="3.7" opacity="0.78"/>
<circle cx="312.4" cy="393.9" r="1.8" opacity="0.28"/>
<circle cx="440.3" cy="392.3" r="3.8" opacity="0.81"/>
<circle cx="80.1" cy="390.7" r="2.8" opacity="0.53"/>
<circle cx="484.2" cy="389.1" r="2.4" opacity="0.41"/>
<circle cx="248.8" cy="387.5" r="4.3" opacity="0.87"/>
<circle cx="190.5" cy="385.9" r="1.9" opacity="0.31"/>
<circle cx="513.4" cy="384.3" r="3.5" opacity="0.67"/>
<circle cx="94.6" cy="382.7" r="3.4" opacity="0.70"/>
<circle cx="389.2" cy="381.1" r="1.9" opacity="0.29"/>
<circle cx="374.6" cy="379.5" r="4.1" opacity="0.86"/>
<circle cx="100.1" cy="377.9" r="2.4" opacity="0.43"/>
<circle cx="520.6" cy="376.3" r="2.6" opacity="0.50"/>
<circle cx="174.8" cy="374.6" r="3.8" opacity="0.83"/>
<circle cx="263.5" cy="373.0" r="1.7" opacity="0.27"/>
<circle cx="479.8" cy="371.4" r="3.8" opacity="0.77"/>
<circle cx="71.0" cy="369.8" r="3.2" opacity="0.60"/>
<circle cx="457.9" cy="368.2" r="1.9" opacity="0.35"/>
<circle cx="296.6" cy="366.6" r="4.2" opacity="0.89"/>
<circle cx="146.5" cy="365.0" r="2.1" opacity="0.34"/>
<circle cx="530.3" cy="363.4" r="3.4" opacity="0.61"/>
<circle cx="113.9" cy="361.8" r="3.8" opacity="0.76"/>
<circle cx="343.8" cy="360.2" r="1.8" opacity="0.27"/>
<circle cx="422.0" cy="358.6" r="4.2" opacity="0.84"/>
<circle cx="75.8" cy="357.0" r="2.7" opacity="0.49"/>
<circle cx="508.8" cy="355.4" r="2.6" opacity="0.43"/>
<circle cx="216.6" cy="353.8" r="4.0" opacity="0.87"/>
<circle cx="213.8" cy="352.2" r="1.7" opacity="0.28"/>
<circle cx="511.0" cy="350.6" r="3.6" opacity="0.71"/>
<circle cx="74.8" cy="349.0" r="3.2" opacity="0.67"/>
<circle cx="420.9" cy="347.4" r="1.7" opacity="0.30"/>
<circle cx="347.2" cy="345.8" r="4.1" opacity="0.89"/>
<circle cx="109.0" cy="344.1" r="2.0" opacity="0.39"/>
<circle cx="534.7" cy="342.5" r="2.8" opacity="0.54"/>
<circle cx="145.0" cy="340.9" r="3.7" opacity="0.82"/>
<circle cx="293.7" cy="339.3" r="1.9" opacity="0.25"/>
<circle cx="464.7" cy="337.7" r="4.1" opacity="0.81"/>
<circle cx="63.2" cy="336.1" r="2.8" opacity="0.56"/>
<circle cx="484.6" cy="334.5" r="2.1" opacity="0.37"/>
<circle cx="264.9" cy="332.9" r="4.1" opacity="0.89"/>
<circle cx="167.0" cy="331.3" r="2.2" opacity="0.31"/>
<circle cx="531.6" cy="329.7" r="3.4" opacity="0.65"/>
<circle cx="91.5" cy="328.1" r="3.4" opacity="0.73"/>
<circle cx="375.8" cy="326.5" r="1.9" opacity="0.27"/>
<circle cx="396.9" cy="324.9" r="4.1" opacity="0.87"/>
<circle cx="81.0" cy="323.3" r="2.4" opacity="0.45"/>
<circle cx="526.1" cy="321.7" r="2.6" opacity="0.47"/>
<circle cx="185.6" cy="320.1" r="3.9" opacity="0.86"/>
<circle cx="242.4" cy="318.5" r="1.8" opacity="0.26"/>
<circle cx="499.5" cy="316.9" r="3.9" opacity="0.75"/>
<circle cx="63.4" cy="315.3" r="3.2" opacity="0.63"/>
<circle cx="449.5" cy="313.6" r="2.3" opacity="0.32"/>
<circle cx="316.3" cy="312.0" r="4.3" opacity="0.90"/>
<circle cx="126.4" cy="310.4" r="2.0" opacity="0.35"/>
<circle cx="539.8" cy="308.8" r="3.3" opacity="0.58"/>
<circle cx="120.0" cy="307.2" r="3.8" opacity="0.79"/>
<circle cx="325.6" cy="305.6" r="1.6" opacity="0.25"/>
<circle cx="442.3" cy="304.0" r="4.0" opacity="0.84"/>
<circle cx="64.5" cy="302.4" r="2.6" opacity="0.51"/>
<circle cx="505.0" cy="300.8" r="2.3" opacity="0.41"/>
<circle cx="233.2" cy="299.2" r="4.2" opacity="0.89"/>
<circle cx="193.6" cy="297.6" r="2.1" opacity="0.28"/>
<circle cx="523.8" cy="296.0" r="3.3" opacity="0.69"/>
<circle cx="76.5" cy="294.4" r="3.3" opacity="0.69"/>
<circle cx="405.9" cy="292.8" r="1.8" opacity="0.28"/>
<circle cx="367.3" cy="291.2" r="4.3" opacity="0.89"/>
<circle cx="94.9" cy="289.6" r="2.2" opacity="0.41"/>
<circle cx="535.1" cy="288.0" r="2.8" opacity="0.51"/>
<circle cx="158.4" cy="286.4" r="4.1" opacity="0.84"/>
<circle cx="273.9" cy="284.7" r="1.9" opacity="0.25"/>
<circle cx="480.0" cy="283.1" r="3.7" opacity="0.79"/>
<circle cx="60.8" cy="281.5" r="3.0" opacity="0.58"/>
<circle cx="472.8" cy="279.9" r="2.1" opacity="0.35"/>
<circle cx="284.3" cy="278.3" r="4.1" opacity="0.90"/>
<circle cx="150.6" cy="276.7" r="1.8" opacity="0.32"/>
<circle cx="535.9" cy="275.1" r="3.4" opacity="0.62"/>
<circle cx="101.6" cy="273.5" r="3.7" opacity="0.75"/>
<circle cx="356.8" cy="271.9" r="1.6" opacity="0.26"/>
<circle cx="414.4" cy="270.3" r="4.3" opacity="0.86"/>
<circle cx="74.8" cy="268.7" r="2.6" opacity="0.47"/>
<circle cx="517.7" cy="267.1" r="2.3" opacity="0.45"/>
<circle cx="204.1" cy="265.5" r="4.3" opacity="0.87"/>
<circle cx="224.1" cy="263.9" r="1.6" opacity="0.27"/>
<circle cx="507.6" cy="262.3" r="3.4" opacity="0.73"/>
<circle cx="69.9" cy="260.7" r="3.1" opacity="0.65"/>
<circle cx="431.8" cy="259.1" r="1.9" opacity="0.31"/>
<circle cx="335.5" cy="257.5" r="4.1" opacity="0.89"/>
<circle cx="116.3" cy="255.9" r="2.0" opacity="0.37"/>
<circle cx="535.1" cy="254.2" r="3.1" opacity="0.55"/>
<circle cx="136.9" cy="252.6" r="3.9" opacity="0.80"/>
<circle cx="305.7" cy="251.0" r="1.7" opacity="0.26"/>
<circle cx="454.2" cy="249.4" r="3.9" opacity="0.81"/>
<circle cx="67.2" cy="247.8" r="3.0" opacity="0.54"/>
<circle cx="489.0" cy="246.2" r="2.5" opacity="0.39"/>
<circle cx="253.7" cy="244.6" r="4.3" opacity="0.88"/>
<circle cx="179.7" cy="243.0" r="1.8" opacity="0.30"/>
<circle cx="523.2" cy="241.4" r="3.4" opacity="0.66"/>
<circle cx="91.3" cy="239.8" r="3.7" opacity="0.71"/>
<circle cx="384.8" cy="238.2" r="1.8" opacity="0.28"/>
<circle cx="383.1" cy="236.6" r="4.3" opacity="0.87"/>
<circle cx="93.2" cy="235.0" r="2.4" opacity="0.44"/>
<circle cx="521.6" cy="233.4" r="2.7" opacity="0.49"/>
<circle cx="179.8" cy="231.8" r="4.1" opacity="0.84"/>
<circle cx="256.2" cy="230.2" r="2.0" opacity="0.27"/>
<circle cx="484.2" cy="228.6" r="3.8" opacity="0.76"/>
<circle cx="72.6" cy="227.0" r="3.1" opacity="0.61"/>
<circle cx="451.2" cy="225.4" r="2.3" opacity="0.34"/>
<circle cx="303.9" cy="223.7" r="4.3" opacity="0.88"/>
<circle cx="143.8" cy="222.1" r="2.1" opacity="0.35"/>
<circle cx="525.9" cy="220.5" r="3.2" opacity="0.60"/>
<circle cx="123.1" cy="218.9" r="3.8" opacity="0.77"/>
<circle cx="335.5" cy="217.3" r="1.9" opacity="0.27"/>
<circle cx="423.8" cy="215.7" r="4.2" opacity="0.83"/>
<circle cx="82.6" cy="214.1" r="2.9" opacity="0.50"/>
<circle cx="496.6" cy="212.5" r="2.6" opacity="0.43"/>
<circle cx="227.1" cy="210.9" r="4.0" opacity="0.86"/>
<circle cx="211.8" cy="209.3" r="2.0" opacity="0.30"/>
<circle cx="502.2" cy="207.7" r="3.5" opacity="0.70"/>
<circle cx="90.4" cy="206.1" r="3.2" opacity="0.67"/>
<circle cx="407.2" cy="204.5" r="2.0" opacity="0.31"/>
<circle cx="350.7" cy="202.9" r="4.2" opacity="0.86"/>
<circle cx="118.9" cy="201.3" r="2.5" opacity="0.41"/>
<circle cx="515.7" cy="199.7" r="2.8" opacity="0.53"/>
<circle cx="162.8" cy="198.1" r="4.0" opacity="0.80"/>
<circle cx="287.4" cy="196.5" r="2.1" opacity="0.28"/>
<circle cx="454.7" cy="194.8" r="3.9" opacity="0.78"/>
<circle cx="85.1" cy="193.2" r="3.1" opacity="0.57"/>
<circle cx="462.1" cy="191.6" r="2.4" opacity="0.39"/>
<circle cx="275.1" cy="190.0" r="4.2" opacity="0.86"/>
<circle cx="175.7" cy="188.4" r="1.9" opacity="0.34"/>
<circle cx="507.2" cy="186.8" r="3.4" opacity="0.63"/>
<circle cx="118.9" cy="185.2" r="3.6" opacity="0.72"/>
<circle cx="360.4" cy="183.6" r="1.9" opacity="0.30"/>
<circle cx="390.9" cy="182.0" r="3.8" opacity="0.83"/>
<circle cx="106.7" cy="180.4" r="2.7" opacity="0.47"/>
<circle cx="493.7" cy="178.8" r="2.6" opacity="0.48"/>
<circle cx="207.2" cy="177.2" r="4.0" opacity="0.82"/>
<circle cx="244.3" cy="175.6" r="2.1" opacity="0.31"/>
<circle cx="473.6" cy="174.0" r="3.4" opacity="0.72"/>
<circle cx="100.3" cy="172.4" r="3.4" opacity="0.63"/>
<circle cx="421.1" cy="170.8" r="2.3" opacity="0.36"/>
<circle cx="320.0" cy="169.2" r="4.2" opacity="0.85"/>
<circle cx="150.8" cy="167.6" r="2.3" opacity="0.39"/>
<circle cx="499.1" cy="166.0" r="2.8" opacity="0.57"/>
<circle cx="155.6" cy="164.3" r="3.7" opacity="0.76"/>
<circle cx="314.8" cy="162.7" r="2.2" opacity="0.31"/>
<circle cx="421.0" cy="161.1" r="3.7" opacity="0.78"/>
<circle cx="108.0" cy="159.5" r="2.8" opacity="0.53"/>
<circle cx="461.9" cy="157.9" r="2.4" opacity="0.43"/>
<circle cx="252.3" cy="156.3" r="4.0" opacity="0.83"/>
<circle cx="209.9" cy="154.7" r="2.3" opacity="0.35"/>
<circle cx="479.1" cy="153.1" r="3.3" opacity="0.66"/>
<circle cx="126.6" cy="151.5" r="3.4" opacity="0.68"/>
<circle cx="377.3" cy="149.9" r="2.3" opacity="0.34"/>
<circle cx="357.8" cy="148.3" r="3.9" opacity="0.81"/>
<circle cx="139.1" cy="146.7" r="2.4" opacity="0.45"/>
<circle cx="478.5" cy="145.1" r="3.0" opacity="0.52"/>
<circle cx="197.2" cy="143.5" r="3.6" opacity="0.78"/>
<circle cx="274.6" cy="141.9" r="2.1" opacity="0.33"/>
<circle cx="438.3" cy="140.3" r="3.7" opacity="0.73"/>
<circle cx="122.6" cy="138.7" r="2.8" opacity="0.59"/>
<circle cx="423.4" cy="137.1" r="2.1" opacity="0.40"/>
<circle cx="294.0" cy="135.5" r="4.0" opacity="0.81"/>
<circle cx="187.4" cy="133.8" r="2.4" opacity="0.40"/>
<circle cx="470.4" cy="132.2" r="3.0" opacity="0.60"/>
<circle cx="161.6" cy="130.6" r="3.5" opacity="0.71"/>
<circle cx="335.0" cy="129.0" r="2.2" opacity="0.35"/>
<circle cx="384.7" cy="127.4" r="3.8" opacity="0.77"/>
<circle cx="142.1" cy="125.8" r="2.6" opacity="0.51"/>
<circle cx="447.5" cy="124.2" r="2.8" opacity="0.48"/>
<circle cx="239.4" cy="122.6" r="3.9" opacity="0.78"/>
<circle cx="244.1" cy="121.0" r="2.4" opacity="0.37"/>
<circle cx="440.8" cy="119.4" r="3.2" opacity="0.67"/>
<circle cx="149.4" cy="117.8" r="3.0" opacity="0.63"/>
<circle cx="381.9" cy="116.2" r="2.5" opacity="0.40"/>
<circle cx="327.6" cy="114.6" r="3.8" opacity="0.78"/>
<circle cx="180.0" cy="113.0" r="2.4" opacity="0.45"/>
<circle cx="447.7" cy="111.4" r="2.8" opacity="0.56"/>
<circle cx="201.9" cy="109.8" r="3.4" opacity="0.72"/>
<circle cx="299.0" cy="108.2" r="2.2" opacity="0.38"/>
<circle cx="396.7" cy="106.6" r="3.8" opacity="0.72"/>
<circle cx="160.6" cy="104.9" r="3.2" opacity="0.56"/>
<circle cx="408.6" cy="103.3" r="2.5" opacity="0.46"/>
<circle cx="277.4" cy="101.7" r="3.6" opacity="0.76"/>
<circle cx="227.9" cy="100.1" r="2.5" opacity="0.42"/>
<circle cx="426.2" cy="98.5" r="3.1" opacity="0.62"/>
<circle cx="186.9" cy="96.9" r="3.4" opacity="0.66"/>
<circle cx="342.1" cy="95.3" r="2.5" opacity="0.42"/>
<circle cx="347.6" cy="93.7" r="3.5" opacity="0.73"/>
<circle cx="191.0" cy="92.1" r="2.6" opacity="0.51"/>
<circle cx="411.5" cy="90.5" r="2.7" opacity="0.53"/>
<circle cx="243.5" cy="88.9" r="3.3" opacity="0.71"/>
<circle cx="275.4" cy="87.3" r="2.3" opacity="0.43"/>
<circle cx="388.8" cy="85.7" r="3.6" opacity="0.66"/>
<circle cx="196.2" cy="84.1" r="2.9" opacity="0.59"/>
<circle cx="364.8" cy="82.5" r="2.8" opacity="0.47"/>
<circle cx="304.7" cy="80.9" r="3.3" opacity="0.71"/>
<circle cx="233.1" cy="79.3" r="2.6" opacity="0.49"/>
<circle cx="390.3" cy="77.7" r="3.1" opacity="0.58"/>
<circle cx="234.1" cy="76.1" r="3.1" opacity="0.65"/>
<circle cx="310.4" cy="74.4" r="2.7" opacity="0.46"/>
<circle cx="344.7" cy="72.8" r="3.2" opacity="0.66"/>
<circle cx="229.1" cy="71.2" r="3.2" opacity="0.55"/>
<circle cx="358.2" cy="69.6" r="2.7" opacity="0.53"/>
<circle cx="281.7" cy="68.0" r="3.2" opacity="0.65"/>
<circle cx="276.5" cy="66.4" r="2.5" opacity="0.51"/>
<circle cx="344.3" cy="64.8" r="3.0" opacity="0.60"/>
<circle cx="263.3" cy="63.2" r="3.1" opacity="0.59"/>
<circle cx="312.7" cy="61.6" r="3.0" opacity="0.54"/>
<circle cx="300.0" cy="60.0" r="3.1" opacity="0.57"/>
</svg>
